<?xml version="1.0" encoding="UTF-8" standalone="no"?>
<svg
   height="73"
   viewBox="0 0 73 73"
   width="73"
   version="1.1"
   id="svg34"
   sodipodi:docname="color-wheel.svg"
   inkscape:version="1.1.2 (0a00cf5339, 2022-02-04)"
   xmlns:inkscape="http://www.inkscape.org/namespaces/inkscape"
   xmlns:sodipodi="http://sodipodi.sourceforge.net/DTD/sodipodi-0.dtd"
   xmlns="http://www.w3.org/2000/svg"
   xmlns:svg="http://www.w3.org/2000/svg">
  <defs
     id="defs38" />
  <sodipodi:namedview
     id="namedview36"
     pagecolor="#ffffff"
     bordercolor="#666666"
     borderopacity="1.0"
     inkscape:pageshadow="2"
     inkscape:pageopacity="0.0"
     inkscape:pagecheckerboard="0"
     showgrid="false"
     inkscape:zoom="8"
     inkscape:cx="7.6875"
     inkscape:cy="43.375"
     inkscape:window-width="1920"
     inkscape:window-height="1095"
     inkscape:window-x="0"
     inkscape:window-y="32"
     inkscape:window-maximized="1"
     inkscape:current-layer="svg34" />
  <g
     transform="matrix(1.3943831,0,0,1.3924133,1.2355652,0.92731097)"
     id="g30"
     style="fill:none;fill-rule:nonzero">
    <path
       d="m 3.4085083,38.254669 c 1.1038742,1.90464 2.4622192,3.678154 4.0602494,5.276573 C 12.285416,48.347511 18.68882,51 25.5,51 c 6.811569,0 13.214973,-2.652489 18.031242,-7.468758 1.59842,-1.598419 2.956375,-3.371933 4.06025,-5.276573 C 49.814415,34.419319 51,30.051292 51,25.5 51,20.948708 49.814415,16.580681 47.591492,12.745331 46.487618,10.840691 45.129273,9.0667878 43.531242,7.4687576 38.714973,2.6524887 32.311569,0 25.5,0 18.68882,0 12.285027,2.6524887 7.4687577,7.4687576 5.8703385,9.0667878 4.5119934,10.840691 3.4085083,12.745331 1.1855851,16.580681 0,20.949097 0,25.5 0,30.050903 1.1855851,34.419319 3.4085083,38.254669 Z M 18.992317,25.5 c 0,-1.184418 0.319451,-2.294518 0.874695,-3.25248 1.126831,-1.943939 3.228744,-3.255592 5.632988,-3.255592 2.404243,0 4.506157,1.311653 5.633377,3.255592 0.554855,0.957573 0.874695,2.068062 0.874695,3.25248 0,1.184418 -0.31984,2.294518 -0.874695,3.252091 -1.126831,1.944328 -3.229134,3.255592 -5.633377,3.255592 -2.404244,0 -4.506157,-1.311264 -5.633377,-3.255593 C 19.311768,27.794517 18.992317,26.684418 18.992317,25.5 Z"
       fill="#ff8398"
       id="path4" />
    <path
       d="M 25.5,41.503647 V 51 c 6.811569,0 13.214973,-2.652489 18.031242,-7.468758 1.59842,-1.598419 2.956375,-3.371933 4.06025,-5.276573 L 39.361656,33.502991 C 36.594383,38.285797 31.423256,41.503647 25.5,41.503647 Z"
       fill="#54e360"
       id="path6" />
    <path
       d="m 41.504036,25.5 c 0,2.91552 -0.780144,5.648941 -2.14238,8.002991 l 8.229836,4.751678 C 49.814415,34.419319 51,30.051292 51,25.5 51,20.948708 49.814415,16.580681 47.591492,12.745331 l -8.229836,4.751289 c 1.362236,2.354439 2.14238,5.08786 2.14238,8.00338 z"
       fill="#008adf"
       id="path8" />
    <path
       d="m 11.638344,33.502991 -8.2298357,4.751678 c 1.1038742,1.90464 2.4622192,3.678154 4.0602493,5.276573 C 12.285416,48.347511 18.68882,51 25.5,51 v -9.496353 c -5.923256,0 -11.094383,-3.21785 -13.861656,-8.000656 z"
       fill="#ffd400"
       id="path10" />
    <path
       d="m 39.361656,17.49662 8.229836,-4.751289 C 46.487617,10.840691 45.129272,9.0667878 43.531242,7.4687576 38.714973,2.6524887 32.311569,0 25.5,0 v 9.495964 c 5.923256,0 11.094383,3.218239 13.861656,8.000656 z"
       fill="#0065a3"
       id="path12" />
    <path
       d="M 3.4085083,38.254669 11.638344,33.502991 C 10.276108,31.148941 9.4963532,28.41552 9.4963532,25.5 c 0,-2.91552 0.7797548,-5.648941 2.1419908,-8.002991 L 3.4085083,12.745331 C 1.185585,16.580681 0,20.949097 0,25.5 c 0,4.550903 1.185585,8.919319 3.4085083,12.754669 z"
       fill="#ff9100"
       id="path14" />
    <path
       d="M 25.5,9.495964 V 0 C 18.68882,0 12.285027,2.6524887 7.4687577,7.4687576 5.8703385,9.0667878 4.5119934,10.840691 3.4085083,12.745331 l 8.2298357,4.751678 C 14.405617,12.714203 19.576744,9.495964 25.5,9.495964 Z"
       fill="#ff4949"
       id="path16" />
    <path
       d="m 32.008072,25.5 c 0,1.184418 -0.31984,2.294518 -0.874695,3.252091 l 8.228279,4.7509 c 1.362236,-2.35405 2.14238,-5.087471 2.14238,-8.002991 0,-2.915909 -0.780144,-5.648941 -2.14238,-8.00338 l -8.228279,4.7509 c 0.554855,0.957573 0.874695,2.068062 0.874695,3.25248 z"
       fill="#0065a3"
       id="path18" />
    <path
       d="m 31.133377,22.24752 8.228279,-4.750511 C 36.594383,12.714203 31.423256,9.495964 25.5,9.495964 v 9.495964 c 2.404243,0 4.506157,1.311653 5.633377,3.255592 z"
       fill="#005183"
       id="path20" />
    <path
       d="m 25.5,32.007683 v 9.495964 c 5.923256,0 11.094383,-3.21785 13.861656,-8.000656 L 31.133377,28.75248 C 30.006546,30.696419 27.904243,32.007683 25.5,32.007683 Z"
       fill="#00ab5e"
       id="path22" />
    <path
       d="m 25.5,41.503647 v -9.495964 c -2.404244,0 -4.506157,-1.311264 -5.633377,-3.255593 l -8.228279,4.750901 c 2.767273,4.782806 7.9384,8.000656 13.861656,8.000656 z"
       fill="#ff9f04"
       id="path24" />
    <path
       d="m 18.992317,25.5 c 0,-1.184418 0.319451,-2.294518 0.874695,-3.25248 L 11.638344,17.497009 C 10.276108,19.851059 9.4963532,22.58448 9.4963532,25.5 c 0,2.91552 0.7797548,5.648941 2.1419908,8.002991 L 19.866623,28.75209 C 19.311768,27.794517 18.992317,26.684418 18.992317,25.5 Z"
       fill="#ff4b00"
       id="path26" />
    <path
       d="M 25.5,18.991928 V 9.495964 c -5.923256,0 -11.094383,3.218239 -13.861656,8.001045 l 8.228668,4.750511 C 20.993843,20.303581 23.095756,18.991928 25.5,18.991928 Z"
       fill="#e80048"
       id="path28" />
  </g>
</svg>
