<?xml version="1.0" encoding="UTF-8" standalone="no"?>
<!-- Created with Inkscape (http://www.inkscape.org/) -->

<svg
   id="svg2"
   sodipodi:version="0.32"
   inkscape:version="1.1.2 (0a00cf5339, 2022-02-04)"
   width="750"
   height="500"
   sodipodi:docname="my.svg"
   version="1.0"
   xmlns:inkscape="http://www.inkscape.org/namespaces/inkscape"
   xmlns:sodipodi="http://sodipodi.sourceforge.net/DTD/sodipodi-0.dtd"
   xmlns="http://www.w3.org/2000/svg"
   xmlns:svg="http://www.w3.org/2000/svg"
   xmlns:rdf="http://www.w3.org/1999/02/22-rdf-syntax-ns#"
   xmlns:cc="http://creativecommons.org/ns#"
   xmlns:dc="http://purl.org/dc/elements/1.1/">
  <metadata
     id="metadata7">
    <rdf:RDF>
      <cc:Work
         rdf:about="">
        <dc:format>image/svg+xml</dc:format>
        <dc:type
           rdf:resource="http://purl.org/dc/dcmitype/StillImage" />
      </cc:Work>
    </rdf:RDF>
  </metadata>
  <defs
     id="defs5">
    <clipPath
       id="clip0_503_3033">
      <rect
         width="28"
         height="20"
         rx="2"
         fill="#ffffff"
         id="rect17"
         x="0"
         y="0" />
    </clipPath>
    <mask
       id="mask0_503_3033"
       maskUnits="userSpaceOnUse"
       x="0"
       y="0"
       width="28"
       height="20">
      <rect
         width="28"
         height="20"
         rx="2"
         fill="#ffffff"
         id="rect4"
         x="0"
         y="0" />
    </mask>
  </defs>
  <sodipodi:namedview
     inkscape:window-height="1094"
     inkscape:window-width="1920"
     inkscape:pageshadow="2"
     inkscape:pageopacity="1"
     borderopacity="1.0"
     bordercolor="#666666"
     pagecolor="#ffffff"
     id="base"
     inkscape:zoom="0.74811897"
     inkscape:cx="323.47796"
     inkscape:cy="284.04573"
     inkscape:window-x="0"
     inkscape:window-y="33"
     inkscape:current-layer="layer1"
     showguides="true"
     inkscape:guide-bbox="true"
     height="500px"
     width="750px"
     inkscape:pagecheckerboard="0"
     showgrid="false"
     inkscape:window-maximized="1" />
  <g
     inkscape:groupmode="layer"
     id="layer1"
     inkscape:label="background">
    <g
       clip-path="url(#clip0_503_3033)"
       id="g15"
       transform="matrix(26.915878,0,0,25.120913,-0.7068176,-2.0043602)">
      <rect
         width="28"
         height="20"
         rx="2"
         fill="#ffffff"
         id="rect2"
         x="0"
         y="0" />
      <mask
         id="mask856"
         maskUnits="userSpaceOnUse"
         x="0"
         y="0"
         width="28"
         height="20">
        <rect
           width="28"
           height="20"
           rx="2"
           fill="#ffffff"
           id="rect854"
           x="0"
           y="0" />
      </mask>
      <g
         mask="url(#mask0_503_3033)"
         id="g13">
        <path
           fill-rule="evenodd"
           clip-rule="evenodd"
           d="M 28,0 H 13.3333 V 1.33333 H 28 Z m 0,2.66667 H 13.3333 V 4 H 28 Z M 13.3333,5.33333 H 28 V 6.66667 H 13.3333 Z M 28,8 H 13.3333 V 9.33333 H 28 Z M 0,10.6667 H 28 V 12 H 0 Z m 28,2.6666 H 0 v 1.3334 H 28 Z M 0,16 h 28 v 1.3333 H 0 Z m 28,2.6667 H 0 V 20 h 28 z"
           fill="#e1244a"
           id="path7" />
        <rect
           width="16"
           height="10.6667"
           fill="#0c3f8e"
           id="rect9"
           x="0"
           y="0" />
        <path
           fill-rule="evenodd"
           clip-rule="evenodd"
           d="m 6.66666,9.33334 c 0.94511,0 1.81366,-0.32777 2.49818,-0.87585 -0.36261,0.13525 -0.7551,0.20919 -1.16485,0.20919 -1.84095,0 -3.33333,-1.49239 -3.33333,-3.33334 0,-1.84095 1.49238,-3.33333 3.33333,-3.33333 0.40975,0 0.80224,0.07393 1.16485,0.20919 C 8.48032,1.66112 7.61177,1.33334 6.66666,1.33334 c -2.20914,0 -4,1.79086 -4,4 0,2.20914 1.79086,4 4,4 z M 9.50963,7.73593 10.6667,6.42668 11.8237,7.73593 11.5215,6.01503 13.2665,5.92673 11.7326,5.09005 12.7515,3.6707 11.141,4.34828 10.6667,2.66668 10.1923,4.34828 8.58177,3.6707 9.60074,5.09005 8.06685,5.92673 l 1.745,0.0883 z"
           fill="#ffd34f"
           id="path11" />
      </g>
    </g>
  </g>
</svg>
